<?xml version="1.0" encoding="UTF-8"?>
<svg version="1.1" xmlns="http://www.w3.org/2000/svg" width="421" height="118">
<!-- Purple gradient letters without black background -->
<path d="M0 0 C19.8 0 39.6 0 60 0 C60 2.64 60 5.28 60 8 C62.31 8 64.62 8 67 8 C67 11.96 67 15.92 67 20 C67.99 20 68.98 20 70 20 C70 22.64 70 25.28 70 28 C72.31 28 74.62 28 77 28 C77 35.92 77 43.84 77 52 C73.7 52 70.4 52 67 52 C67 54.64 67 57.28 67 60 C67.99 60 68.98 60 70 60 C70 62.64 70 65.28 70 68 C72.31 68 74.62 68 77 68 C77 82.52 77 97.04 77 112 C69.08 112 61.16 112 53 112 C53 108.04 53 104.08 53 100 C52.01 100 51.02 100 50 100 C50 90.76 50 81.52 50 72 C42.41 72 34.82 72 27 72 C27 85.2 27 98.4 27 112 C19.08 112 11.16 112 3 112 C3 108.04 3 104.08 3 100 C2.01 100 1.02 100 0 100 C0 67 0 34 0 0 Z " fill="#CC97E0" transform="translate(172,3)"/>
<path d="M0 0 C23.1 0 46.2 0 70 0 C70 2.64 70 5.28 70 8 C72.31 8 74.62 8 77 8 C77 15.92 77 23.84 77 32 C60.5 32 44 32 27 32 C27 34.64 27 37.28 27 40 C34.59 40 42.18 40 50 40 C50 42.64 50 45.28 50 48 C52.31 48 54.62 48 57 48 C57 55.92 57 63.84 57 72 C47.1 72 37.2 72 27 72 C27 74.64 27 77.28 27 80 C41.19 80 55.38 80 70 80 C70 82.64 70 85.28 70 88 C72.31 88 74.62 88 77 88 C77 95.92 77 103.84 77 112 C52.58 112 28.16 112 3 112 C3 108.04 3 104.08 3 100 C2.01 100 1.02 100 0 100 C0 67 0 34 0 0 Z " fill="#7937E4" transform="translate(342,3)"/>
<path d="M0 0 C23.1 0 46.2 0 70 0 C70 2.64 70 5.28 70 8 C72.31 8 74.62 8 77 8 C77 15.92 77 23.84 77 32 C60.5 32 44 32 27 32 C27 34.64 27 37.28 27 40 C34.59 40 42.18 40 50 40 C50 42.64 50 45.28 50 48 C52.31 48 54.62 48 57 48 C57 55.92 57 63.84 57 72 C47.1 72 37.2 72 27 72 C27 85.2 27 98.4 27 112 C19.08 112 11.16 112 3 112 C3 108.04 3 104.08 3 100 C2.01 100 1.02 100 0 100 C0 67 0 34 0 0 Z " fill="#AA82ED" transform="translate(2,3)"/>
<path d="M0 0 C19.8 0 39.6 0 60 0 C60 2.64 60 5.28 60 8 C62.31 8 64.62 8 67 8 C67 11.96 67 15.92 67 20 C48.19 20 29.38 20 10 20 C10 39.8 10 59.6 10 80 C10.99 80 11.98 80 13 80 C13 66.8 13 53.6 13 40 C13.33 40 13.66 40 14 40 C14 53.2 14 66.4 14 80 C14.66 80 15.32 80 16 80 C16 66.8 16 53.6 16 40 C16.33 40 16.66 40 17 40 C17 53.2 17 66.4 17 80 C27.89 80 38.78 80 50 80 C50 66.8 50 53.6 50 40 C56.6 40 63.2 40 70 40 C70 53.2 70 66.4 70 80 C66.7 80 63.4 80 60 80 C60 86.6 60 93.2 60 100 C40.2 100 20.4 100 0 100 C0 97.36 0 94.72 0 92 C-2.31 92 -4.62 92 -7 92 C-7 88.04 -7 84.08 -7 80 C-7.99 80 -8.98 80 -10 80 C-10 60.2 -10 40.4 -10 20 C-6.7 20 -3.4 20 0 20 C0 13.4 0 6.8 0 0 Z " fill="#D6CCFA" transform="translate(92,3)"/>
<path d="M0 0 C19.8 0 39.6 0 60 0 C60 2.64 60 5.28 60 8 C62.31 8 64.62 8 67 8 C67 29.12 67 50.24 67 72 C63.7 72 60.4 72 57 72 C57 78.6 57 85.2 57 92 C35.88 92 14.76 92 -7 92 C-7 88.04 -7 84.08 -7 80 C11.81 80 30.62 80 50 80 C50 73.4 50 66.8 50 60 C53.3 60 56.6 60 60 60 C60 46.8 60 33.6 60 20 C53.4 20 46.8 20 40 20 C40 33.2 40 46.4 40 60 C26.8 60 13.6 60 0 60 C0 40.2 0 20.4 0 0 Z " fill="#A45EDB" transform="translate(102,23)"/>
<path d="M0 0 C6.6 0 13.2 0 20 0 C20 19.8 20 39.6 20 60 C20.99 60 21.98 60 23 60 C23 46.8 23 33.6 23 20 C23.33 20 23.66 20 24 20 C24 33.2 24 46.4 24 60 C24.66 60 25.32 60 26 60 C26 46.8 26 33.6 26 20 C26.33 20 26.66 20 27 20 C27 33.2 27 46.4 27 60 C37.89 60 48.78 60 60 60 C60 53.4 60 46.8 60 40 C66.6 40 73.2 40 80 40 C80 46.6 80 53.2 80 60 C76.7 60 73.4 60 70 60 C70 66.6 70 73.2 70 80 C50.2 80 30.4 80 10 80 C10 77.36 10 74.72 10 72 C7.69 72 5.38 72 3 72 C3 68.04 3 64.08 3 60 C2.01 60 1.02 60 0 60 C0 40.2 0 20.4 0 0 Z " fill="#D6CCFA" transform="translate(252,23)"/>
<path d="M0 0 C6.6 0 13.2 0 20 0 C20 6.6 20 13.2 20 20 C20.99 20 21.98 20 23 20 C23 16.04 23 12.08 23 8 C32.9 8 42.8 8 53 8 C53 5.36 53 2.72 53 0 C53.33 0 53.66 0 54 0 C54 2.97 54 5.94 54 9 C44.1 9 34.2 9 24 9 C24 12.63 24 16.26 24 20 C24.66 20 25.32 20 26 20 C26 17.03 26 14.06 26 11 C35.9 11 45.8 11 56 11 C56 7.37 56 3.74 56 0 C56.33 0 56.66 0 57 0 C57 3.96 57 7.92 57 12 C47.1 12 37.2 12 27 12 C27 14.64 27 17.28 27 20 C41.19 20 55.38 20 70 20 C70 22.64 70 25.28 70 28 C72.31 28 74.62 28 77 28 C77 35.92 77 43.84 77 52 C52.58 52 28.16 52 3 52 C3 48.04 3 44.08 3 40 C2.01 40 1.02 40 0 40 C0 26.8 0 13.6 0 0 Z " fill="#DABEEE" transform="translate(342,63)"/>
<path d="M0 0 C19.8 0 39.6 0 60 0 C60 2.64 60 5.28 60 8 C62.31 8 64.62 8 67 8 C67 15.92 67 23.84 67 32 C50.5 32 34 32 17 32 C16.67 47.84 16.34 63.68 16 80 C14.02 80 12.04 80 10 80 C10 60.2 10 40.4 10 20 C6.7 20 3.4 20 0 20 C0 13.4 0 6.8 0 0 Z " fill="#7938E4" transform="translate(262,3)"/>
<path d="M0 0 C23.1 0 46.2 0 70 0 C70 2.64 70 5.28 70 8 C72.31 8 74.62 8 77 8 C77 15.92 77 23.84 77 32 C60.5 32 44 32 27 32 C27 34.64 27 37.28 27 40 C24.69 40 22.38 40 20 40 C20 33.4 20 26.8 20 20 C13.4 20 6.8 20 0 20 C0 13.4 0 6.8 0 0 Z " fill="#7937E4" transform="translate(2,3)"/>
<path d="M0 0 C19.8 0 39.6 0 60 0 C60 6.6 60 13.2 60 20 C46.8 20 33.6 20 20 20 C20 33.2 20 46.4 20 60 C13.4 60 6.8 60 0 60 C0 40.2 0 20.4 0 0 Z " fill="#A181F4" transform="translate(172,43)"/>
<path d="M0 0 C9.9 0 19.8 0 30 0 C30 2.64 30 5.28 30 8 C32.31 8 34.62 8 37 8 C37 22.52 37 37.04 37 52 C33.7 52 30.4 52 27 52 C27 58.6 27 65.2 27 72 C5.88 72 -15.24 72 -37 72 C-37 68.04 -37 64.08 -37 60 C-18.19 60 0.62 60 20 60 C20 53.4 20 46.8 20 40 C23.3 40 26.6 40 30 40 C30 33.4 30 26.8 30 20 C20.1 20 10.2 20 0 20 C0 13.4 0 6.8 0 0 Z " fill="#B47BE1" transform="translate(302,43)"/>
<path d="M0 0 C19.8 0 39.6 0 60 0 C60 2.64 60 5.28 60 8 C62.31 8 64.62 8 67 8 C67 11.96 67 15.92 67 20 C51.49 20 35.98 20 20 20 C20 26.6 20 33.2 20 40 C13.4 40 6.8 40 0 40 C0 26.8 0 13.6 0 0 Z " fill="#7734E3" transform="translate(172,3)"/>
<path d="M0 0 C19.8 0 39.6 0 60 0 C60 2.64 60 5.28 60 8 C62.31 8 64.62 8 67 8 C67 11.96 67 15.92 67 20 C48.19 20 29.38 20 10 20 C10 26.6 10 33.2 10 40 C3.4 40 -3.2 40 -10 40 C-10 33.4 -10 26.8 -10 20 C-6.7 20 -3.4 20 0 20 C0 13.4 0 6.8 0 0 Z " fill="#7734E3" transform="translate(92,3)"/>
<path d="M0 0 C16.5 0 33 0 50 0 C50 2.64 50 5.28 50 8 C52.31 8 54.62 8 57 8 C57.02781263 9.77073747 57.04674879 11.54161417 57.0625 13.3125 C57.07410156 14.74631 27.94251329 35.05599097 27.94707649 33.61523438 27.95117188 C30.07678898 27.96221855 26.53840461 27.97949208 23 28 C23 31.96 23 35.92 23 40 C22.01 40 21.02 40 20 40 C20 33.4 20 26.8 20 20 C13.4 20 6.8 20 0 20 C0 13.4 0 6.8 0 0 Z " fill="#A080F3" transform="translate(342,43)"/>
<path d="M0 0 C16.5 0 33 0 50 0 C50 2.64 50 5.28 50 8 C52.31 8 54.62 8 57 8 C57 15.92 57 23.84 57 32 C53.7 32 50.4 32 47 32 C47 34.64 47 37.28 47 40 C44.69 40 42.38 40 40 40 C40 33.4 40 26.8 40 20 C26.8 20 13.6 20 0 20 C0 13.4 0 6.8 0 0 Z " fill="#8857ED" transform="translate(192,23)"/>
<path d="M0 0 C6.6 0 13.2 0 20 0 C20 19.8 20 39.6 20 60 C16.7 60 13.4 60 10 60 C10 62.64 10 65.28 10 68 C8.02 68.495 8.02 68.495 6 69 C7.32 69 8.64 69 10 69 C10 69.66 10 70.32 10 71 C8.02 71 6.04 71 4 71 C4 67.37 4 63.74 4 60 C2.68 60 1.36 60 0 60 C0 40.2 0 20.4 0 0 Z " fill="#A181F4" transform="translate(252,23)"/>
<path d="M0 0 C6.6 0 13.2 0 20 0 C20 13.2 20 26.4 20 40 C16.7 40 13.4 40 10 40 C10 42.64 10 45.28 10 48 C8.02 48.495 8.02 48.495 6 49 C7.32 49 8.64 49 10 49 C10 49.66 10 50.32 10 51 C8.02 51 6.04 51 4 51 C4 47.37 4 43.74 4 40 C2.68 40 1.36 40 0 40 C0 26.8 0 13.6 0 0 Z " fill="#BFACF9" transform="translate(82,43)"/>
<path d="M0 0 C6.6 0 13.2 0 20 0 C20 13.2 20 26.4 20 40 C13.4 40 6.8 40 0 40 C0 26.8 0 13.6 0 0 Z " fill="#D9D0FB" transform="translate(172,63)"/>
<path d="M0 0 C6.6 0 13.2 0 20 0 C20 13.2 20 26.4 20 40 C13.4 40 6.8 40 0 40 C0 26.8 0 13.6 0 0 Z " fill="#D9D0FB" transform="translate(2,63)"/>
<path d="M0 0 C6.6 0 13.2 0 20 0 C20 13.2 20 26.4 20 40 C13.4 40 6.8 40 0 40 C0 26.8 0 13.6 0 0 Z " fill="#BFACF9" transform="translate(142,43)"/>
<path d="M0 0 C6.6 0 13.2 0 20 0 C20 6.6 20 13.2 20 20 C16.7 20 13.4 20 10 20 C10 22.64 10 25.28 10 28 C8.68 28.33 7.36 28.66 6 29 C7.32 29 8.64 29 10 29 C10 29.66 10 30.32 10 31 C8.02 31 6.04 31 4 31 C4 27.37 4 23.74 4 20 C2.68 20 1.36 20 0 20 C0 13.4 0 6.8 0 0 Z " fill="#BFACF9" transform="translate(252,63)"/>
<path d="M0 0 C6.6 0 13.2 0 20 0 C20 6.6 20 13.2 20 20 C13.4 20 6.8 20 0 20 C0 13.4 0 6.8 0 0 Z " fill="#D9D0FB" transform="translate(222,83)"/>
<path d="M0 0 C6.6 0 13.2 0 20 0 C20 6.6 20 13.2 20 20 C13.4 20 6.8 20 0 20 C0 13.4 0 6.8 0 0 Z " fill="#BFACF9" transform="translate(342,63)"/>
<path d="M0 0 C6.6 0 13.2 0 20 0 C20 6.6 20 13.2 20 20 C13.4 20 6.8 20 0 20 C0 13.4 0 6.8 0 0 Z " fill="#BFACF9" transform="translate(312,63)"/>
<path d="M0 0 C6.6 0 13.2 0 20 0 C20 6.6 20 13.2 20 20 C13.4 20 6.8 20 0 20 C0 13.4 0 6.8 0 0 Z " fill="#BFACF9" transform="translate(172,63)"/>
<path d="M0 0 C6.6 0 13.2 0 20 0 C20 6.6 20 13.2 20 20 C13.4 20 6.8 20 0 20 C0 13.4 0 6.8 0 0 Z " fill="#BFACF9" transform="translate(2,63)"/>
<path d="M0 0 C6.6 0 13.2 0 20 0 C20 6.6 20 13.2 20 20 C13.4 20 6.8 20 0 20 C0 13.4 0 6.8 0 0 Z " fill="#A181F4" transform="translate(142,43)"/>
<path d="M0 0 C6.6 0 13.2 0 20 0 C20 6.6 20 13.2 20 20 C13.4 20 6.8 20 0 20 C0 13.4 0 6.8 0 0 Z " fill="#A181F4" transform="translate(82,43)"/>
<path d="M0 0 C6.6 0 13.2 0 20 0 C20 6.6 20 13.2 20 20 C13.4 20 6.8 20 0 20 C0 13.4 0 6.8 0 0 Z " fill="#8653EE" transform="translate(342,23)"/>
<path d="M0 0 C6.6 0 13.2 0 20 0 C20 6.6 20 13.2 20 20 C13.4 20 6.8 20 0 20 C0 13.4 0 6.8 0 0 Z " fill="#8653EE" transform="translate(252,23)"/>
<path d="M0 0 C6.6 0 13.2 0 20 0 C20 6.6 20 13.2 20 20 C13.4 20 6.8 20 0 20 C0 13.4 0 6.8 0 0 Z " fill="#8653EE" transform="translate(172,23)"/>
<path d="M0 0 C6.6 0 13.2 0 20 0 C20 6.6 20 13.2 20 20 C13.4 20 6.8 20 0 20 C0 13.4 0 6.8 0 0 Z " fill="#8653EE" transform="translate(82,23)"/>
<path d="M0 0 C6.6 0 13.2 0 20 0 C20 6.6 20 13.2 20 20 C13.4 20 6.8 20 0 20 C0 13.4 0 6.8 0 0 Z " fill="#8653EE" transform="translate(2,23)"/>
<!-- Transparent cutouts for letter interiors (O hole, R interior, etc.) -->
<path d="M0 0 C10.89 0 21.78 0 33 0 C33 15.84 33 31.68 33 48 C22.11 48 11.22 48 0 48 C0 32.16 0 16.32 0 0 Z " fill="none" transform="translate(109,35)"/>
</svg>
